<?xml version="1.0" encoding="utf-8"?>
<!-- Generator: Adobe Illustrator 24.3.0, SVG Export Plug-In . SVG Version: 6.00 Build 0)  -->
<svg version="1.1" id="Layer_1" xmlns="http://www.w3.org/2000/svg" xmlns:xlink="http://www.w3.org/1999/xlink" x="0px" y="0px"
	 viewBox="0 0 1366 768" style="enable-background:new 0 0 1366 768;" xml:space="preserve">
<style type="text/css">
	.st0{opacity:0.5;fill:#B3B3B3;}
	.st1{opacity:0.5;fill:#1A1A1A;}
	.st2{fill:none;stroke:#F2D602;stroke-width:10;stroke-miterlimit:10;}
	.st3{fill:none;stroke:#D95F02;stroke-width:10;stroke-miterlimit:10;}
	.st4{fill:#D95F02;stroke:#000000;stroke-width:3;stroke-miterlimit:10;}
	.st5{font-family:'PrestigeEliteStd-BdSlanted';}
	.st6{font-size:200px;}
	.st7{fill:#F2D602;stroke:#000000;stroke-width:3;stroke-miterlimit:10;}
	.st8{fill:#4D4D4D;}
	.st9{font-family:'Helvetica';}
	.st10{font-size:60px;}
</style>
<g>
	<path class="st0" d="M429,653h226.04C588.78,715.62,499.37,754,401,754C196.65,754,31,588.35,31,384S196.65,14,401,14
		c106,0,201.59,44.57,269.04,116H429V653z"/>
</g>
<g>
	<path class="st0" d="M1264,130v523H654.04C725.44,585.55,770,489.98,770,384c0-98.35-38.37-187.74-100.96-254H1264z"/>
</g>
<g>
	<path class="st1" d="M770,384c0,105.98-44.56,201.55-115.96,269H428V130h241.04C731.63,196.26,770,285.65,770,384z"/>
</g>
<rect x="428" y="130" class="st2" width="836" height="523"/>
<ellipse class="st3" cx="400.5" cy="384" rx="369.5" ry="370"/>
<text transform="matrix(1 0 0 1 195.7607 431.7744)" class="st4 st5 st6">E</text>
<text transform="matrix(1 0 0 1 876.6489 431.9001)" class="st7 st5 st6">GT</text>
<text transform="matrix(1 0 0 1 762.4229 640.0845)" class="st8 st9 st10">Human Annotation</text>
<text transform="matrix(1 0 0 1 235.0995 633.0645)"><tspan x="0" y="0" class="st8 st9 st10">Model </tspan><tspan x="0" y="72" class="st8 st9 st10">Explanation</tspan></text>
</svg>
